<svg width="83" height="32" viewBox="0 0 83 32" fill="none" xmlns="http://www.w3.org/2000/svg">
<g opacity="0.3" clip-path="url(#clip0_114_10726)">
<path d="M0.303772 0.446289H6.24402V6.41618H0.303772V0.446289Z" fill="#202430"/>
<path d="M6.09635 31.5512V10.0297H0.452026V31.5299H6.09643L6.09635 31.5512ZM43.4715 31.7636V26.4948C42.647 26.4948 41.9494 26.4523 41.4421 26.3674C40.8501 26.2824 40.4063 26.0699 40.1103 25.7725C39.8142 25.4751 39.624 25.0501 39.5183 24.4765C39.4338 23.9453 39.3915 23.2443 39.3915 22.3945V14.8949H43.4715V10.0297H39.3914V1.65911H33.747V22.4583C33.747 24.2216 33.8951 25.7087 34.191 26.8985C34.487 28.067 34.9944 29.023 35.692 29.7453C36.3895 30.4677 37.3197 30.9775 38.4402 31.2963C39.5817 31.6149 41.0192 31.7636 42.7316 31.7636H43.4715ZM75.7731 31.5512V0.00195312H70.1288V31.5512H75.7731ZM28.3144 12.1543C26.75 10.4546 24.5515 9.60483 21.761 9.60483C20.4081 9.60483 19.1608 9.88103 18.0615 10.4334C16.9412 10.9858 16.011 11.7506 15.25 12.7278L14.954 13.1315V10.0297H9.39428V31.5299H14.9963V20.0787V20.4824C15.0597 18.4641 15.5459 16.9769 16.476 16.0209C17.4697 15.0011 18.6746 14.4913 20.0487 14.4913C21.6765 14.4913 22.9237 15.0011 23.7482 15.9784C24.5515 16.9557 24.9743 18.3366 24.9743 20.1V31.5299H30.6608V19.3351C30.682 16.2758 29.8788 13.8539 28.3144 12.1543ZM67.2114 20.7585C67.2114 19.2077 66.9366 17.763 66.4081 16.4033C65.8584 15.0648 65.0974 13.8751 64.1462 12.8553C63.1737 11.8356 62.011 11.0495 60.6581 10.4759C59.3051 9.90223 57.8042 9.62603 56.1765 9.62603C54.6332 9.62603 53.1745 9.92351 51.8216 10.4971C50.4687 11.092 49.2848 11.8781 48.2913 12.8766C47.2977 13.8751 46.4944 15.0649 45.9236 16.4246C45.3317 17.7843 45.0569 19.2502 45.0569 20.8011C45.0569 22.352 45.3318 23.8179 45.8814 25.1776C46.431 26.5373 47.2132 27.727 48.1856 28.7256C49.158 29.7241 50.363 30.5314 51.7582 31.105C53.1534 31.6999 54.6967 31.9974 56.3456 31.9974C61.1232 31.9974 64.0827 29.8091 65.8584 27.7695L61.7996 24.6677C60.954 25.6875 58.9246 27.0685 56.3879 27.0685C54.8024 27.0685 53.4917 26.7072 52.4981 25.9637C51.5045 25.2413 50.8281 24.2216 50.4686 22.9681L50.4053 22.7769H67.2114V20.7585ZM50.4475 18.7828C50.4475 17.2106 52.2444 14.47 56.113 14.4488C59.9815 14.4488 61.7996 17.1894 61.7996 18.7615L50.4475 18.7828ZM82.1996 28.8318C82.0939 28.5769 81.946 28.3644 81.7557 28.1732C81.5655 27.982 81.354 27.8333 81.1004 27.727C80.8467 27.6208 80.5719 27.5571 80.2971 27.5571C80.0011 27.5571 79.7475 27.6208 79.4938 27.727C79.2401 27.8333 79.0287 27.982 78.8384 28.1732C78.6482 28.3644 78.5002 28.5769 78.3945 28.8318C78.2888 29.0867 78.2254 29.3629 78.2254 29.6391C78.2254 29.9365 78.2888 30.1914 78.3945 30.4465C78.5002 30.7013 78.6482 30.9138 78.8384 31.105C79.0287 31.2963 79.2401 31.445 79.4938 31.5512C79.7474 31.6574 80.0223 31.7211 80.2971 31.7211C80.5931 31.7211 80.8467 31.6574 81.1004 31.5512C81.354 31.445 81.5655 31.2963 81.7558 31.105C81.946 30.9138 82.0939 30.7014 82.1997 30.4465C82.3055 30.1915 82.3688 29.9153 82.3688 29.639C82.3688 29.3627 82.3053 29.0867 82.1997 28.8318H82.1996ZM81.8615 30.319C81.7769 30.5314 81.6501 30.7226 81.502 30.8714C81.3541 31.0201 81.1638 31.1475 80.9524 31.2325C80.741 31.3175 80.5296 31.3599 80.276 31.3599C80.0434 31.3599 79.8108 31.3175 79.5995 31.2325C79.3882 31.1476 79.1978 31.0201 79.0498 30.8713C78.9019 30.7226 78.775 30.5314 78.6904 30.319C78.6059 30.1065 78.5636 29.894 78.5636 29.6391C78.5636 29.4054 78.6059 29.1717 78.6905 28.9593C78.775 28.7468 78.9019 28.5556 79.0498 28.4069C79.1978 28.2582 79.3881 28.1307 79.5995 28.0456C79.8108 27.9607 80.0222 27.9182 80.276 27.9182C80.5085 27.9182 80.741 27.9608 80.9524 28.0457C81.1638 28.1307 81.3541 28.2582 81.502 28.407C81.6501 28.5556 81.7769 28.7467 81.8615 28.9593C81.946 29.1718 81.9883 29.3842 81.9883 29.6391C81.9883 29.894 81.946 30.1065 81.8615 30.319ZM80.6776 29.8303C80.8466 29.8091 80.9735 29.7453 81.0792 29.6391C81.1849 29.5329 81.2484 29.3842 81.2484 29.1717C81.2484 28.938 81.1849 28.768 81.037 28.6406C80.9102 28.5131 80.6776 28.4493 80.4028 28.4493H79.4726V30.8501H79.9166V29.8728H80.2336L80.8256 30.8501H81.2906L80.6776 29.8303ZM80.445 29.4691H79.9164V28.7893H80.4449C80.5084 28.7893 80.5718 28.8105 80.6353 28.8318C80.6987 28.8531 80.741 28.8955 80.762 28.938C80.8044 28.9805 80.8044 29.0442 80.8044 29.1292C80.8044 29.2141 80.7832 29.278 80.762 29.3204C80.7198 29.3629 80.6775 29.4054 80.6353 29.4267C80.5718 29.4479 80.5084 29.4691 80.4449 29.4691H80.445Z" fill="#202430"/>
</g>
<defs>
<clipPath id="clip0_114_10726">
<rect width="82.0647" height="32" fill="white" transform="translate(0.303833)"/>
</clipPath>
</defs>
</svg>
