<svg xmlns="http://www.w3.org/2000/svg" version="1.1" xmlns:xlink="http://www.w3.org/1999/xlink" width="1500" height="1500" viewBox="0 0 1500 1500"><rect width="1500" height="1500" x="0" y="0" id="background" stroke="transparent" fill="#000000"></rect><svg xml:space="preserve" width="1000" height="1000" data-version="2" data-id="lg_smVLu42nN7WWxQB9Ol" viewBox="0 0 521 567" x="250" y="250"><rect width="100%" height="100%" fill="transparent"></rect><path fill="none" stroke="#0e0e0e" stroke-width="2.28" d="M10.15 543.37q0 1.96.72 3.62.72 1.66 1.98 2.81 2.66 2.41 6.84 2.41 4.17 0 7.35-3.17.35-.36.62-.36t.52.21q.24.2.24.5 0 .29-.16.66h.01q-1.1 1.93-3.67 3.21t-5.26 1.28q-2.7 0-4.91-.68-2.21-.69-3.92-1.97-1.71-1.27-2.72-3.26-1.01-1.98-1.01-4.46 0-2.49.95-4.55.96-2.05 2.63-3.4 3.42-2.78 8.74-2.78 2.83 0 5.35.87 1.29.46 2.1 1.3.81.84.81 1.93 0 1.08-.67 1.61-.68.53-1.58.53-.91 0-1.34-.15-.16-2.29-1.31-3.4-1.16-1.11-3.49-1.11-3.97 0-6.4 2.3-2.42 2.31-2.42 6.05Zm32.56 1.65q0 1.34-1.01 2.35-1.97 1.97-5.64 1.97-.71 0-1.52-.14-.81-.13-1.01-.16v-.02q-1.11.94-1.11 1.64 0 .65.63.87.89.32 2.49.35 1.59.03 2.49.05.89.02 1.93.09 1.04.08 1.83.29.79.21 1.48.56 1.41.74 1.41 2.49 0 1.32-.69 2.33t-1.85 1.6q-2.3 1.19-5.48 1.19-2.75 0-4.84-.77-1.13-.41-1.79-1.2-.66-.8-.66-1.92 0-2.08 2.09-3.2-.55-.55-.75-1.03-.2-.48-.2-1.13 0-.64.12-.99t.37-.65q.32-.38 1.2-1.04-1.38-.69-2.11-1.54-.72-.86-.72-2.17t.61-2.28q.61-.97 1.6-1.54 2.02-1.15 4.51-1.15.71 0 2.63.35 1.93.36 2.16.36 1.31 0 1.53-1.3 1.87 0 1.87 1.49 0 .72-.43 1.14-.43.42-1 .42-.56 0-1.21-.06.43.36.75 1.14.32.78.32 1.61Zm-6.56-3.89h-.79q-.79 0-1.9.92-1.1.92-1.1 2.43 0 1.51 1.13 2.48 1.14.96 2.78.96t2.66-.9q1.02-.9 1.02-2.35 0-1.45-1.11-2.5-1.11-1.04-2.69-1.04Zm.25 17.63q2.26 0 3.43-.47 1.17-.48 1.62-1.1.46-.62.46-1.49 0-1.8-7-1.8-1.98 0-1.98-.04-1.11 1.12-1.11 2.15 0 2.75 4.58 2.75Zm13.71-4.63-1.26.02q-1.92 0-2.37-.59-.21-.26-.21-.64 0-.37.3-.52.29-.14.65-.16.36-.01.65-.22.29-.22.29-.68v-8.37q0-.44-.33-.66-.33-.22-.71-.25-1.05-.06-1.05-.66 0-.96 1.93-1.3.44-.09.82-.09 1.26 0 1.63.38.36.37.36 1.66 2.03-2.26 5.48-2.26 1.2 0 2.34.73 1.13.72 1.76 1.69 2.49-2.43 5.54-2.43 3.53 0 4.5 3.02.53 1.64.53 4.43v4.11q0 .85.94.9.95.05.95.75 0 .81-.88 1-.68.14-1.85.14l-1.26.02q-1.92 0-2.37-.59-.21-.26-.21-.64 0-.37.3-.52.29-.14.65-.16.36-.01.65-.22.29-.22.29-.68v-4.52q0-3.34-.74-4.26-.71-.89-2.01-.89-1.3 0-2.26.34-.96.35-1.58 1.07-.61.73-.61 1.71v6.55q0 .85.94.9.95.05.95.75 0 .81-.88 1-.68.14-1.85.14l-1.26.02q-1.92 0-2.37-.59-.21-.26-.21-.64 0-.37.3-.52.29-.14.65-.16.36-.01.65-.22.29-.22.29-.68v-4.37q0-2.75-.48-3.79-.7-1.51-2.4-1.51-2.11 0-3.23 1.07t-1.12 3.04v5.56q0 .85.94.9.95.05.95.75 0 .81-.88 1-.68.14-1.85.14Zm31.01-1.33q3.3 0 3.3-2.02 0-1.52-2.98-2.39-.55-.16-1.34-.38-1.48-.4-2-.6-1.28-.5-2.18-1.45-.89-.95-.89-2.26 0-1.68 1.6-2.79 1.61-1.12 3.88-1.12 2.21 0 4.14.81.95.39 1.55 1.1.59.7.59 1.46t-.61 1.22q-.6.45-1.26.45-.65 0-.86-.12-.21-.13-.21-.58 0-2.83-3.01-2.83-1.24 0-2.16.55-.93.55-.93 1.43 0 1.38 2.87 2.18.46.12 1.1.29.65.17 1.19.33.54.17 1.13.4.6.23 1.26.59.66.37 1.07.79.95.97.95 2.34 0 1.37-.92 2.37-1.84 1.94-5.28 1.94-2.24 0-4.13-.73-.97-.38-1.55-1.05-.59-.68-.59-1.44 0-.76.49-1.18.48-.42 1.09-.42.62 0 1.05.39.43.38.43.94 0 .56-.1 1.21 1.55.57 3.31.57Z" paint-order="stroke"></path><path fill="#c9c9c9" d="M10.15 543.37q0 1.96.72 3.62.72 1.66 1.98 2.81 2.66 2.41 6.84 2.41 4.17 0 7.35-3.17.35-.36.62-.36t.52.21q.24.2.24.5 0 .29-.16.66h.01q-1.1 1.93-3.67 3.21t-5.26 1.28q-2.7 0-4.91-.68-2.21-.69-3.92-1.97-1.71-1.27-2.72-3.26-1.01-1.98-1.01-4.46 0-2.49.95-4.55.96-2.05 2.63-3.4 3.42-2.78 8.74-2.78 2.83 0 5.35.87 1.29.46 2.1 1.3.81.84.81 1.93 0 1.08-.67 1.61-.68.53-1.58.53-.91 0-1.34-.15-.16-2.29-1.31-3.4-1.16-1.11-3.49-1.11-3.97 0-6.4 2.3-2.42 2.31-2.42 6.05" paint-order="stroke"></path><rect width="21.64" height="21.1" x="-10.82" y="-10.55" fill="none" rx="0" ry="0" transform="translate(18.1 544.49)"></rect><path fill="#c9c9c9" d="M42.71 545.02q0 1.34-1.01 2.35-1.97 1.97-5.64 1.97-.71 0-1.52-.14-.81-.13-1.01-.16v-.02q-1.11.94-1.11 1.64 0 .65.63.87.89.32 2.49.35 1.59.03 2.49.05.89.02 1.93.09 1.04.08 1.83.29.79.21 1.48.56 1.41.74 1.41 2.49 0 1.32-.69 2.33t-1.85 1.6q-2.3 1.19-5.48 1.19-2.75 0-4.84-.77-1.13-.41-1.79-1.2-.66-.8-.66-1.92 0-2.08 2.09-3.2-.55-.55-.75-1.03-.2-.48-.2-1.13 0-.64.12-.99t.37-.65q.32-.38 1.2-1.04-1.38-.69-2.11-1.54-.72-.86-.72-2.17t.61-2.28q.61-.97 1.6-1.54 2.02-1.15 4.51-1.15.71 0 2.63.35 1.93.36 2.16.36 1.31 0 1.53-1.3 1.87 0 1.87 1.49 0 .72-.43 1.14-.43.42-1 .42-.56 0-1.21-.06.43.36.75 1.14.32.78.32 1.61m-6.56-3.89h-.79q-.79 0-1.9.92-1.1.92-1.1 2.43 0 1.51 1.13 2.48 1.14.96 2.78.96t2.66-.9q1.02-.9 1.02-2.35 0-1.45-1.11-2.5-1.11-1.04-2.69-1.04m.25 17.63q2.26 0 3.43-.47 1.17-.48 1.62-1.1.46-.62.46-1.49 0-1.8-7-1.8-1.98 0-1.98-.04-1.11 1.12-1.11 2.15 0 2.75 4.58 2.75" paint-order="stroke"></path><rect width="15.31" height="21.2" x="-7.66" y="-10.6" fill="none" rx="0" ry="0" transform="translate(37.52 550.38)"></rect><path fill="#c9c9c9" d="m50.11 554.13-1.26.02q-1.92 0-2.37-.59-.21-.26-.21-.64 0-.37.3-.52.29-.14.65-.16.36-.01.65-.22.29-.22.29-.68v-8.37q0-.44-.33-.66-.33-.22-.71-.25-1.05-.06-1.05-.66 0-.96 1.93-1.3.44-.09.82-.09 1.26 0 1.63.38.36.37.36 1.66 2.03-2.26 5.48-2.26 1.2 0 2.34.73 1.13.72 1.76 1.69 2.49-2.43 5.54-2.43 3.53 0 4.5 3.02.53 1.64.53 4.43v4.11q0 .85.94.9.95.05.95.75 0 .81-.88 1-.68.14-1.85.14l-1.26.02q-1.92 0-2.37-.59-.21-.26-.21-.64 0-.37.3-.52.29-.14.65-.16.36-.01.65-.22.29-.22.29-.68v-4.52q0-3.34-.74-4.26-.71-.89-2.01-.89-1.3 0-2.26.34-.96.35-1.58 1.07-.61.73-.61 1.71v6.55q0 .85.94.9.95.05.95.75 0 .81-.88 1-.68.14-1.85.14l-1.26.02q-1.92 0-2.37-.59-.21-.26-.21-.64 0-.37.3-.52.29-.14.65-.16.36-.01.65-.22.29-.22.29-.68v-4.37q0-2.75-.48-3.79-.7-1.51-2.4-1.51-2.11 0-3.23 1.07t-1.12 3.04v5.56q0 .85.94.9.95.05.95.75 0 .81-.88 1-.68.14-1.85.14" paint-order="stroke"></path><rect width="26.78" height="14.37" x="-13.39" y="-7.18" fill="none" rx="0" ry="0" transform="translate(59.96 547.47)"></rect><path fill="#c9c9c9" d="M81.12 552.8q3.3 0 3.3-2.02 0-1.52-2.98-2.39-.55-.16-1.34-.38-1.48-.4-2-.6-1.28-.5-2.18-1.45-.89-.95-.89-2.26 0-1.68 1.6-2.79 1.61-1.12 3.88-1.12 2.21 0 4.14.81.95.39 1.55 1.1.59.7.59 1.46t-.61 1.22q-.6.45-1.26.45-.65 0-.86-.12-.21-.13-.21-.58 0-2.83-3.01-2.83-1.24 0-2.16.55-.93.55-.93 1.43 0 1.38 2.87 2.18.46.12 1.1.29.65.17 1.19.33.54.17 1.13.4.6.23 1.26.59.66.37 1.07.79.95.97.95 2.34 0 1.37-.92 2.37-1.84 1.94-5.28 1.94-2.24 0-4.13-.73-.97-.38-1.55-1.05-.59-.68-.59-1.44 0-.76.49-1.18.48-.42 1.09-.42.62 0 1.05.39.43.38.43.94 0 .56-.1 1.21 1.55.57 3.31.57" paint-order="stroke"></path><rect width="12.47" height="14.72" x="-6.24" y="-7.36" fill="none" rx="0" ry="0" transform="translate(81.58 547.65)"></rect><path fill="#bdbdbd" d="M515.78 424.22c0 11.318.035 22.636-.056 33.953-.011 1.371-.759 2.73-1.167 4.102-1.484-.6-3.399-.816-4.384-1.892-3.161-3.444-7.115-5.472-11.216-7.41-2.334-1.098-4.43-2.718-6.797-3.704-3.852-1.62-7.783-3.943-11.782-4.158-12.111-.657-24.267-.555-36.4-.51-4.963.023-9.925.77-14.898.986-5.076.215-9.788-1.167-14.445-3.217-1.824-.805-4.305-.76-6.321-.318-4.283.94-8.429 2.515-12.677 3.614-3.444.884-7.002 1.36-10.457 2.232-.918.227-2.402 1.405-2.3 1.87.215 1.019 1.167 1.982 2.017 2.73.6.52 1.518.747 2.334.963 4.973 1.314 9.969 2.56 14.942 3.897 8.758 2.356 16.971 6.05 24.89 10.4 5.835 3.206 11.431 6.763 16.212 11.521 2.107 2.096 4.792 3.592 7.07 5.552 6.65 5.71 11.487 12.949 16.415 20.063 1.631 2.357 2.56 5.212 3.75 7.874.884 1.971-.068 2.82-1.983 2.945q-1.268.08-2.549.08c-18.387 0-36.785-.034-55.172.045-3.138.011-5.313-.827-6.843-3.795-1.97-3.83-3.999-7.772-6.729-11.057-3.16-3.807-6.979-7.115-10.763-10.344-7.261-6.22-14.897-12.02-21.99-18.42a50.98 50.98 0 0 1-12.8-18.07c-.817-1.938-2.097-3.116-4.17-3.331-6.446-.68-12.904-1.37-19.361-1.96-2.232-.204-3.354 1.53-2.946 3.24a37.386 37.386 0 0 0 3.49 9.652c2.333 4.17 5.245 8.021 8.066 11.896 2.99 4.101 6.151 8.077 9.267 12.088 3.455 4.44 7.205 8.69 10.32 13.357 2.164 3.251 3.558 7.035 5.11 10.66.465 1.077.397 2.402.465 3.614.101 1.666-.805 2.402-2.414 2.402l-2.549.023c-19.995 0-39.99-.034-59.987.056-2.503 0-3.716-.68-4.26-3.274-.962-4.6-2.662-9.052-3.466-13.662-.793-4.52-1.314-9.177-1.178-13.754.238-8.44-.578-17.061 2.56-25.173 1.507-3.897 3.444-7.636 5.302-11.397.612-1.257 1.631-2.311 2.357-3.512 1.608-2.673 1.087-5.2-1.711-6.593-4.294-2.13-8.723-4.022-13.164-5.846a3.965 3.965 0 0 0-2.946.193c-10.434 5.313-16.416 13.674-18.648 25.32-2.118 11.057-1.03 22.16-1.823 33.228-.51 7.137-.556 14.263-2.482 21.242-.645 2.333-1.71 3.228-4.112 3.228-22.443-.056-44.897-.022-67.34-.045-3.308 0-4.452-1.133-3.353-4.112 1.756-4.725 4.079-9.245 6.186-13.844 3.93-8.542 11.895-13.414 18.217-19.758 3.897-3.92 8.417-7.217 12.428-11.035 1.79-1.71 2.855-4.169 4.531-6.038 6.412-7.149 10.14-15.713 13.357-24.584 1.994-5.494 5.381-9.98 9.618-13.98 1.133-1.076 2.028-3.036 1.983-4.565-.057-2.187-2.266-2.017-3.965-2.187-2.696-.272-5.37-.85-8.066-.929-6.265-.181-10.548 3.75-14.467 7.828-4.94 5.144-9.46 10.695-14.162 16.076-6.23 7.149-12.96 14.003-21.536 17.99-7.681 3.57-15.86 6.254-24.595 6.923-7.965.612-15.555.249-23.282-2.266-6.366-2.073-11.476-6.095-17.23-9.052-7.523-3.863-15.272-4.52-23.327-2.855-5.416 1.11-10.774 2.504-16.11 3.954-4.418 1.2-8.757 2.73-13.164 4.01-5.699 1.666-11.295.25-16.654-1.314-9.03-2.628-11.93-14.5-8.066-21.797 1.053-1.982 2.118-3.965 3.296-5.88 5.076-8.19 13.063-12.79 21.639-15.94a42.71 42.71 0 0 1 23.927-1.472c8.35 1.813 16.733 3.478 25.06 5.404q6.321 1.473 12.439 3.614c6.536 2.3 12.915 5.064 19.485 7.262 10.117 3.387 20.143 4.146 29.943-1.541 8.214-4.77 16.45-9.54 25.026-13.606 10.819-5.12 22.386-7.183 34.36-5.45 5.461.794 10.843 2.13 16.246 3.275 2.051.43 3.501-.318 3.92-2.232 1.564-7.24 2.22-14.445-2.855-20.755-3.772-4.69-7.726-9.222-11.521-13.878-3.716-4.566-6.696-9.709-8.146-15.317-2.594-10.003 2.243-20.063 13.72-20.653 4.6-.237 8.96-.396 13.617.77 7.126 1.79 10.967 6.436 14.116 12.338.884 1.654 2.062 3.16 2.912 4.826 1.393 2.73 2.798 5.472 3.863 8.338 1.11 2.957 1.835 6.061 2.707 9.12 2.368 8.316.986 16.223-1.71 24.312-2.141 6.458-2.89 13.38-4.215 20.11-.102.532-.09 1.189.125 1.676.555 1.212 1.269 2.345 1.915 3.512.68-.918 1.518-1.767 2.027-2.776 3.546-7.16 8.803-12.688 15.974-16.155 6.231-3.013 12.53-6.004 19.056-8.27 5.279-1.835 10.966-2.481 16.427-3.84 7.194-1.79 14.524-3.207 21.094-6.923 5.937-3.353 11.012-7.613 13.856-13.968 2.673-5.982 5.404-11.975 7.522-18.172 1.54-4.498 1.949-9.369 3.15-14.003 1.53-5.89 3.002-11.838 5.143-17.526 4.362-11.521 10.434-16.268 22.59-16.438 4.736-.068 11.726 3.739 14.388 8.995 4.747 9.38 4.826 19.09 1.948 28.595-2.231 7.364-4.792 14.863-9.844 21.094-2.108 2.606-3.898 5.484-5.722 8.304-7.771 12.02-18.183 21.628-29.16 30.51-5.393 4.361-11.216 8.644-18.49 9.901-1.064.181-2.039.929-3.058 1.416-7.885 3.739-16.348 5.427-24.856 6.888-4.928.85-10.038 1.496-14.195 4.18-3.104 1.994-5.597 5.235-7.715 8.35-1.518 2.232-.148 4.86 2.537 5.427 6.968 1.472 13.98 2.832 21.016 3.953 2.764.442 4.61-1.586 5.664-3.908 1.745-3.84 4.86-6.378 8.395-8.01 5.778-2.662 11.952-4.44 17.798-6.956 10.876-4.667 22.035-8.87 30.917-17.197 4.044-3.784 8.428-7.205 12.518-10.933 5.415-4.928 8.961-11.238 12.28-17.616 3.807-7.33 7.512-14.728 10.877-22.273 5.098-11.442 8.78-23.19 8.18-36.049-.465-9.901-2.233-19.576-3.683-29.33-.294-1.95-.283-3.954-.611-5.903-1.349-8.248-3.286-16.427-4.022-24.731-.997-11.307-2.753-22.84 1.574-33.863 3.456-8.825 9.358-14.909 19.611-15.838 4.849-.441 9.709-.34 13.73 1.881 4.272 2.368 8.044 6.004 10.118 10.751 4.973 11.363 5.619 23.383 4.724 35.505-.272 3.716-1.428 7.398-2.459 11.012-2.685 9.494-5.55 18.954-8.304 28.425-1.914 6.582-3.512 13.277-5.698 19.769-3.524 10.4-5.008 21.208-7.217 31.89a117.822 117.822 0 0 1-11.148 31.54c-2.458 4.612-5.925 8.747-8.01 13.494-2.65 6.05-8.371 9.414-11.645 14.784-3.716 6.106-9.166 10.332-14.785 14.478a75.904 75.904 0 0 0-8.225 7.319c-.623.612-.464 2.005-.668 3.047.918 0 1.971.318 2.753-.01 9.562-4.023 18.308-9.415 25.388-16.994 3.478-3.716 6.016-8.327 8.882-12.598a80.436 80.436 0 0 0 3.875-6.537c2.005-3.693 4.27-7.296 5.8-11.182 3.58-9.086 7.013-18.24 10.049-27.518 2.254-6.877 3.591-14.06 5.676-20.993 2.775-9.255 5.868-18.41 8.836-27.608.26-.805.612-1.586.873-2.39 2.322-7.206 5.97-13.913 11.612-18.716 5.28-4.51 11.782-7.625 17.922-11.057 1.7-.952 4.249-1.949 5.846.487 1.167 1.778-.056 5.732-2.152 7.08-2.21 1.417-4.6 2.572-6.968 3.75-7.273 3.626-12.201 9.256-15.849 16.552-6.809 13.606-10.185 28.22-13.9 42.778-.16.635-.408 1.314-.33 1.938.103.759.5 1.484.771 2.22.782-.374 1.88-.544 2.3-1.167 3.852-5.834 7.772-11.635 11.284-17.673 3.67-6.299 7.907-12.133 13.266-17.028 2.742-2.503 6.072-4.373 9.267-6.321.442-.26 2.017.521 2.402 1.2.453.805.215 2.017.215 3.048v41.872c0 4.815-1.03 6.537-5.676 7.727-7.771 1.982-14.127 6.366-20.483 10.943a168.802 168.802 0 0 1-14.5 9.018c-1.28.737-3.048.805-4.612.884-3.738.193-6.582 1.223-8.19 5.166-1.983 4.871-4.464 9.562-7.036 14.15-1.824 3.24-4.158 6.197-6.276 9.267-.476.691-1.224 1.28-1.462 2.04-.26.815-.385 2.004.034 2.605.306.43 1.62.294 2.459.17 5.211-.76 8.904-4.35 12.779-7.364 8.712-6.786 17.696-13.187 27.597-17.98 5.937-2.877 12.587-4.281 18.92-6.343.351-.114.748-.057 1.121-.125 4.985-.884 5.325-.6 5.336 4.622v33.387Z"></path><path fill="#bdbdbd" d="M511.744 207.086a43.05 43.05 0 0 1-6.685-5.586c-2.367-2.333-2.209-3.93.136-6.242 1.745-1.722 3.558-3.387 5.2-5.2 2.232-2.47 2.629-7.024.952-9.233-1.314-1.722-5.732-2.39-8.463-.94-1.71.906-3.07 2.458-4.713 3.523-.963.623-2.333 1.439-3.194 1.155-.793-.26-1.541-1.835-1.62-2.877-.25-3.365-.193-6.764-.238-10.14-.046-2.798 1.631-3.557 4.09-4.43a63.442 63.442 0 0 0 11.464-5.686c1.881-1.133 2.232-3.32 1.405-5.574-1.235-3.365-5.132-5.302-8.961-4.385-.725.17-1.903.227-2.22-.17-.42-.52-.442-1.665-.17-2.356a38.519 38.519 0 0 1 2.741-5.868q2.583-4.328 5.483-8.452c1.541-2.186 3.014-4.543 4.996-6.276a10.536 10.536 0 0 0 3.728-9.81c-.08-.647-1.428-1.757-1.904-1.621-2.65.736-4.055-.68-5.392-2.538a24.924 24.924 0 0 0-2.504-3.059 5.438 5.438 0 0 0-6.752-.793c-2.186 1.417-2.776 3.501-2.118 5.926.498 1.812.86 3.75 1.79 5.347 2.48 4.282.668 7.704-1.643 11.238-2.164 3.297-4.147 6.718-6.163 10.106-1.292 2.175-2.311 4.52-3.784 6.56-1.054 1.45-5.245 1.63-6.118.158-.69-1.167-.498-3.138-.124-4.588.441-1.689 1.665-3.161 2.31-4.815 3.252-8.304 7.285-16.439 9.415-25.037 2.368-9.528 3.614-19.452 2.878-29.4q-.657-8.722-1.87-17.378c-.702-5.019-1.654-10.015-2.752-14.965-.93-4.192-1.836-8.463-3.467-12.406-2.141-5.211-5.03-10.117-7.5-15.192-1.892-3.886-4.112-7.704-5.37-11.793-2.254-7.376-3.727-8.814-11.352-8.837h-1.699c-3.16.057-3.433.51-3.195 3.761.499 6.843 4.045 12.632 6.447 18.784 1.835 4.713 4.554 9.086 6.355 13.81 1.937 5.075 3.41 10.343 4.838 15.588 1.348 4.974 2.888 9.993 3.398 15.08.737 7.295.816 14.682.793 22.023 0 5.166-.079 10.457-1.133 15.475-1.529 7.308-2.719 14.807-6.65 21.435-2.198 3.704-3.727 7.873-6.287 11.295-4.328 5.766-9.165 11.148-13.912 16.585-3.762 4.305-7.715 8.44-11.556 12.666q-5.506 6.073-10.944 12.19c-.43.487-.713 1.1-1.053 1.654-2.108 3.41-4.135 6.866-6.333 10.208-2.3 3.512-4.826 6.888-7.115 10.411a49.848 49.848 0 0 0-3.183 5.96c-2.55 5.437-4.996 10.92-7.59 16.336-.284.6-1.496 1.336-1.915 1.155-.68-.294-1.564-1.382-1.462-1.971.567-3.308 1.042-6.718 2.243-9.822 1.484-3.84 4.033-7.262 5.46-11.114 4.635-12.485 12.961-22.68 20.79-33.047 6.774-8.972 15.022-16.835 22.544-25.252 6.877-7.693 13.244-15.589 16.575-25.75a106.493 106.493 0 0 0 4.973-27.972c.578-11.012-1.246-21.877-3.297-32.764-2.039-10.842-7.205-20.37-11.147-30.35-3.014-7.602-6.47-14.966-7.84-23.089-.374-2.175-1.212-3.489-3.648-3.296-2.504.192-5.676-.918-6.356 2.911-.475 2.674-.43 5.427-.838 8.123-.147.986-.918 1.88-1.393 2.821-.691-.77-1.62-1.439-2.028-2.345-1.428-3.16-2.56-6.458-4.056-9.573-.385-.793-1.824-1.7-2.56-1.54-.782.17-1.632 1.45-1.904 2.4-2.662 9.415-4.894 18.954-7.885 28.255a171.068 171.068 0 0 1-8.089 19.849c-2.005 4.294-5.064 8.077-7.16 12.337-3.772 7.659-9.187 13.867-15.316 19.69a159.739 159.739 0 0 1-24.562 18.863 536.995 536.995 0 0 1-21.513 12.903c-6.854 3.92-13.867 7.568-20.823 11.307-4.146 2.232-8.27 4.509-12.519 6.537-.997.475-2.911.487-3.568-.159-.714-.68-.873-2.538-.487-3.591.43-1.19 1.631-2.198 2.696-3.048.861-.68 2.05-.94 3.025-1.507 9.505-5.528 18.953-11.136 28.492-16.597 7.092-4.067 14.558-7.556 21.378-12.03 7.455-4.884 14.252-10.752 21.548-15.907 6.027-4.26 9.199-10.808 13.787-16.223.963-1.133 1.79-2.424 2.47-3.75 2.628-5.087 5.359-10.128 7.704-15.34a387.452 387.452 0 0 0 8.882-21.264c1.62-4.27 2.707-8.768 3.817-13.22.533-2.142 1.519-4.42-.079-7.047-1.03.895-1.88 1.461-2.526 2.209-4.724 5.415-10.593 9.856-13.765 16.63-1.45 3.094-4.022 5.643-5.596 8.69-5.926 11.488-10.446 23.814-19.146 33.658a274.162 274.162 0 0 1-18.104 18.535c-4.441 4.146-9.483 7.68-14.377 11.329-4.826 3.591-9.595 7.352-14.773 10.354-6.435 3.728-13.22 6.843-19.939 10.05-9.72 4.633-19.09 9.788-27.2 16.97-1.893 1.677-4.09 3.104-5.665 5.042a275.295 275.295 0 0 0-12.96 16.902c-.964 1.383-.952 4-.408 5.744.566 1.813 2.47 2.13 4.452 1.949q2.05-.567 4.112-1.19a118.955 118.955 0 0 0 14.06-5.166c1.042-.464 2.016-.963 2.934-1.643q1.246-.951 2.515-1.891a11.329 11.329 0 0 1 3.852-1.892q.147-.114.317-.182c2.968-1.133 6.027-2.05 9.086-2.889 4.158-1.132 8.372-2.039 12.53-3.172 6.423-1.767 12.847-3.534 19.202-5.517 7.693-2.402 15.555-4.452 22.896-7.67 11.544-5.064 22.794-10.853 32.764-18.726a725.056 725.056 0 0 0 23.326-19.078c2.357-2.028 3.943-4.951 5.857-7.489 1.19-1.575 2.436-3.104 3.49-4.77a62.31 62.31 0 0 0 8.088-19.984c.544-2.447 2.051-4.679 3.105-7.012l.838.079c0 1.7.17 3.421-.034 5.087-.544 4.474-1.065 8.972-1.937 13.402-1.314 6.639-3.161 13.164-4.328 19.826-1.11 6.366-4.146 11.872-6.877 17.525a5.325 5.325 0 0 1-3.206 2.448c-6.344 1.574-11.068 5.426-15.192 10.23-3.036 3.534-2.594 6.333 1.37 8.79 2.38 1.474 2.788 3.014 1.122 5.37a58.91 58.91 0 0 1-5.098 6.402c-.566.612-2.039.94-2.832.657-2.152-.76-4.09-2.187-6.254-2.844-3.738-1.121-7.601-1.778-11.374-2.764-3.059-.793-5.29.612-6.763 2.889a5.28 5.28 0 0 0 .725 6.809c2.175 2.152 4.78 3.863 7.25 5.71 3.376 2.537 3.263 4.508-.747 6.174a49.848 49.848 0 0 1-9.403 2.855 14.728 14.728 0 0 0-9.064 5.766c-2.435 3.172-2.118 6.752-.815 10.23.77 2.05 5.426 3.931 8.145 3.591 5.37-.69 10.23-2.56 13.833-6.74 2.3-2.674 4.078-5.8 6.367-8.486 2.934-3.432 6.095-6.684 9.244-9.924 2.357-2.436 2.493-2.368 4.645.363 4.18 5.29 8.09 5.358 11.68-.08.907-1.382 1.235-3.364 1.235-5.075 0-3.285-.555-6.57-.657-9.856a9.063 9.063 0 0 1 .77-4.362c1.723-3.33 3.74-6.503 5.665-9.732 1.11-1.858 2.345-3.648 3.342-5.562 2.447-4.656 4.69-9.415 7.25-14.003.5-.906 2.017-1.688 3.105-1.733 4.226-.193 7.477-1.756 8.451-4.464 1.088-3.025-.09-7.171-3.07-9.607-2.028-1.654-2.594-3.49-2.084-5.97 1.008-4.872 2.209-9.743 2.741-14.671.997-9.267 1.552-18.58 2.357-27.87.215-2.492.668-4.95 1.02-7.431l.838-.08c.17.68.407 1.36.487 2.05 1.053 9.834 2.492 19.645 3.025 29.513.668 12.36 1.02 24.709-1.926 37.023a98.562 98.562 0 0 1-8.033 21.854 73.639 73.639 0 0 1-4.09 7.024c-2.152 3.263-4.565 6.355-6.706 9.64-2.141 3.286-3.988 6.719-6.084 10.016-2.855 4.497-5.868 8.893-8.723 13.38-1.201 1.891-2.107 3.976-3.32 5.856-3.274 5.11-7.092 9.924-9.878 15.272a250.37 250.37 0 0 0-10.56 23.28 138.214 138.214 0 0 0-6.105 19.35c-1.666 7.127-2.414 14.468-3.728 21.673-.464 2.55-.226 4.645 1.836 6.367 2.107 1.756 4.237 1.133 6.333.068 5.166-2.617 9.199-6.288 11.872-11.6 2.255-4.499 5.166-8.668 7.681-13.052 1.779-3.093 3.195-6.4 5.087-9.414 2.175-3.478 4.804-6.684 7.035-10.128 3.705-5.71 7.07-11.635 10.91-17.243 3.84-5.608 7.999-11.035 12.202-16.382 2.492-3.172 5.358-6.06 8.032-9.097 5.517-6.299 10.989-12.655 16.54-18.92 1.88-2.13 3.297-1.823 4.928.465.952 1.337 2.141 3.104 3.512 3.41 2.912.646 3.32 2.39 3.218 4.736a63.442 63.442 0 0 1-.385 5.075c-.782 6.027-.805 6.06-6.82 6.299-3.343.124-5.914 1.36-7.784 4.282-2.526 3.954-.487 9.086 3.954 10.581 3.422 1.145 6.435.726 9.483-.77 2.005-.986 3.58-.736 4.837 1.235 1.473 2.288 2.946 4.588 4.588 6.752 3.308 4.35 3.422 5.767.51 10.343-1.79 2.821-1.903 5.914-.94 8.984s3.535 4.51 6.39 3.161a19.26 19.26 0 0 0 5.823-4.667c2.662-2.98 2.492-3.093 5.857-1.167q1.36.793 2.843 1.212c1.96.555 3.059-.136 3.172-2.311.17-3.49-.963-6.13-4.033-8.123Zm-492.03-18.387c0-5.178.317-10.39-.08-15.544a311.548 311.548 0 0 0-2.605-22.726c-1.745-11.51-4.328-22.907-5.62-34.463-1.178-10.592-.792-21.32 2.89-31.54 2.673-7.409 5.97-14.603 8.655-22.012a36.253 36.253 0 0 0 2.152-10.445 10.65 10.65 0 0 0-2.175-6.378c-5.88-7.727-11.873-15.464-15.385-24.528-1.62-4.18-1.144-9.199-1.472-13.855-.034-.521.85-1.586 1.246-1.563.929.056 2.266.385 2.64 1.042 1.608 2.843 2.922 5.868 4.372 8.814 6.061 12.212 13.006 23.768 23.735 32.593 1.597 1.315 2.866 3.048 4.497 4.283q4.69 3.557 9.664 6.684c.555.351 2.152 0 2.594-.578 4.419-5.585 6.662-11.85 5.608-19.1Q58.3 24.608 56.42 9.79c-.42-3.342.589-4.339 3.84-4.35 9.143-.012 18.297.068 27.44-.046 2.537-.034 3.738.827 4.19 3.388.964 5.358 2.958 10.638 3.128 15.996a64.575 64.575 0 0 1-2.074 17.526c-1.97 7.806-6.661 14.422-11.25 20.97-1.846 2.629-1.03 4.68 2.12 4.883 3.76.238 7.533.181 11.306.283 2.186.057 3.16-1.076 3.659-3.115.872-3.546 1.688-7.149 3.025-10.536a35.913 35.913 0 0 1 11.77-15.838c6.05-4.588 12.258-9.109 17.56-14.479 3.286-3.33 5.042-8.18 7.444-12.382.362-.635.419-1.45.68-2.153 1.63-4.418 1.755-4.486 6.525-4.475 14.807 0 29.614-.022 44.42.046 1.292 0 2.573.657 3.864.997-.362 1.212-.578 2.48-1.088 3.625-4.43 9.97-12.042 17.514-20.267 24.097-6.99 5.596-15.034 9.958-22.93 14.297a52.113 52.113 0 0 0-13.493 10.966c-1.2 1.326-2.583 2.572-3.444 4.101-.566.997-.555 2.493-.328 3.66.056.306 1.97.543 2.934.328 5.426-1.155 10.887-2.254 16.223-3.784q7.828-2.243 15.362-5.38a8.723 8.723 0 0 0 4.022-4.136c2.674-5.71 6.99-9.732 12.36-12.666 5.846-3.195 11.68-6.242 18.75-6.344 5.483-.08 10.988-1.156 16.392-2.255a74.771 74.771 0 0 0 12.587-3.715c9.414-3.716 18.704-7.783 28.073-11.613 1.462-.6 3.104-.736 4.679-1.03 6.933-1.292 13.946-1.417 20.619.826 6.095 2.05 11.873 5.02 17.82 7.545 2.074.873 4.158 1.768 6.31 2.39 8.361 2.403 16.824 4.283 25.593 3.41 3.444-.339 6.876-1.88 10.241-1.676 4.498.272 9.063 1.303 13.334 2.776 2.81.974 3.184 4.27 3.32 7.046.351 7.24-2.436 13.018-8.463 17.141-3.625 2.481-7.115 5.223-10.966 7.307-4.6 2.493-9.698 2.323-14.479.567-5.687-2.096-11.125-4.838-16.778-7.047-1.88-.736-4.056-.736-6.106-.985-6.379-.782-12.553.532-18.784 1.665-4.985.906-10.06 2.119-15.045 1.915-7.477-.306-14.909-1.711-22.363-2.685a58.91 58.91 0 0 0-18.467.69c-10.309 1.915-19.417 6.753-28.787 10.99-5.902 2.674-12.167 2.48-18.319 1.575-2.243-.329-4.43-1.983-6.332-3.456-1.87-1.45-3.444-1.291-5.484-.578-6.253 2.198-12.564 4.226-18.862 6.277-2.051.668-4.238 1.008-6.175 1.903-.985.453-2.31 2.028-2.118 2.719.328 1.212 1.54 2.719 2.696 3.059a73.639 73.639 0 0 0 18.58 2.662c10.989.34 22.034.918 32.888 2.515a96.297 96.297 0 0 1 25.048 7.42c8.021 3.57 15.113 8.1 20.947 14.57 4.362 4.849 8.1 10.15 10.253 16.415 2.753 7.976.453 14.456-6.718 17.481a13.935 13.935 0 0 1-10.978.238c-2.583-1.065-5.506-1.507-7.828-2.934-5.642-3.467-11.069-7.285-16.506-11.069-4.6-3.194-8.792-7.137-13.743-9.595a33.987 33.987 0 0 0-13.798-3.467c-11.295-.362-22.613.476-33.908.17a40.331 40.331 0 0 1-19.916-5.79c-4.532-2.707-8.35-5.845-11.205-10.003-2.673-3.886-5.211-7.84-6.639-12.609-1.688-5.608-2.47-8.123-9.267-7.67-2.288.148-4.758-.249-6.831.488-4.645 1.642-6.05 5.188-4.067 9.822 2.232 5.177 4.362 10.48 7.284 15.271 5.62 9.222 12.01 17.968 17.606 27.201 2.889 4.77 5.052 10.038 7.046 15.272 3.705 9.709 4.589 19.939 4.237 30.226-.306 8.79-3.398 16.29-11.295 21.207-4.35 2.708-11.397 1.383-13.98-3.013-4.169-7.058-7.76-14.275-9.493-22.466-1.666-7.873-3.716-15.792-6.798-23.201-2.48-5.982-6.605-11.318-10.275-16.756-3.625-5.359-7.976-10.241-11.352-15.747-3.75-6.13-6.423-12.96-5.789-20.28.385-4.474 2.277-8.824 3.523-13.231.148-.533.544-.997.737-1.518 3.036-8.191 1.7-7.863-4.724-9.959a58.91 58.91 0 0 1-8.044-3.353c-4.044-2.04-5.653-1.597-8.157 1.586-4.747 6.027-6.435 12.813-5.993 20.313.408 6.956.533 13.923 1.167 20.857.295 3.24 1.36 6.434 2.311 9.584 1.575 5.2 3.32 10.355 5.041 15.51 3.263 9.776 6.945 19.383 9.166 29.545 1.45 6.64 1.858 13.165 2.039 19.849.272 9.697-2.798 18.455-7.987 26.328-3.285 4.985-8.814 7.002-14.728 7.976-5.506.906-9.607-1.303-12.745-5.325-1.2-1.54-1.597-4.01-1.665-6.072-.204-6.593-.08-13.198-.08-19.803h.091ZM6.176 354.589c-.329-4.362-1.133-8.837.781-13.062a436.167 436.167 0 0 1 11.046-22.817c1.847-3.512 4.475-6.627 6.922-9.8a970.895 970.895 0 0 1 13.787-17.446 49.848 49.848 0 0 1 5.223-5.54c4.113-3.716 8.191-7.477 12.564-10.864 6.9-5.336 13.787-10.752 21.106-15.465 11.057-7.114 22.5-13.606 33.738-20.437 7.715-4.69 15.328-9.54 23.032-14.24a12.462 12.462 0 0 1 3.965-1.405c2.492-.544 4.531.736 4.509 3.308a43.05 43.05 0 0 1-1.167 10.524 185.796 185.796 0 0 1-5.665 17.424c-1.133 3.036-2.889 5.857-4.588 8.644-2.186 3.603-4.577 7.08-6.9 10.604a43.05 43.05 0 0 1-2.47 3.41c-6.173 7.693-12.076 15.612-18.624 22.964-6.877 7.727-14.365 14.91-21.616 22.284-3.308 3.365-6.593 6.752-10.082 9.925-8.282 7.522-16.688 14.92-25.038 22.386-5.959 5.324-12.065 10.502-17.82 16.041-7.058 6.775-13.833 13.856-20.743 20.8-.318.318-.714.556-1.541 1.179-.283-1.36-.669-2.357-.68-3.365-.057-6.322-.113-12.643-.011-18.953.056-3.75 1.892-6.82 4.248-9.607 7.341-8.667 14.501-17.481 22.103-25.91 4.26-4.724 9.233-8.814 13.89-13.187 3.024-2.832 6.128-5.585 9.051-8.52 6.14-6.173 13.278-11 20.404-15.94 8.417-5.833 16.37-12.336 24.425-18.67 3.84-3.013 7.658-6.094 11.114-9.527 5.415-5.37 8.44-12.337 11.68-19.112.34-.702.408-1.71.193-2.47-.238-.827-.805-1.926-1.485-2.152-.657-.227-1.937.272-2.401.872-1.44 1.847-2.606 3.897-3.909 5.857-3.67 5.563-6.57 11.477-12.609 15.442-7.115 4.667-13.346 10.683-20.041 16.019a70.24 70.24 0 0 1-8.52 6.038c-8.066 4.645-14.999 10.65-21.694 17.039-7.081 6.752-14.558 13.085-21.503 19.973-4.26 4.226-7.84 9.131-11.703 13.742l-10.66 12.78c-.453.532-1.02.974-1.541 1.45l-.816-.205ZM5.122 479.231c.918-8.021 1.382-16.133 2.912-24.04 1.042-5.382 3.59-10.457 5.426-15.68 1.518-4.35 1.144-5.177-2.538-7.76-2.503-1.756-4.588-3.931-4.939-7.217-.329-2.99 1.042-5.664 3.5-6.48 1.96-.657 4.578.544 6.877 1.065.555.125.952.884 1.462 1.292 2.64 2.084 4.826 1.484 6.4-1.507.952-1.801 2.425-3.33 3.286-5.155.748-1.597 1.45-3.478 1.314-5.166-.158-2.073-2.31-1.677-3.863-1.926-1.858-.294-3.738-.612-5.506-1.223-3.013-1.031-3.568-7.138-1.257-10.185 3.75-4.94 8.96-4.51 14.172-4.18 2.81.18 5.62.566 8.429.793 1.824.147 5.608-3.161 6.231-5.495.714-2.696-1.337-3.637-3.172-4.645-5.359-2.934-7.103-8.78-3.954-13.3 2.617-3.75 7.522-4.045 11.431-.986a38.519 38.519 0 0 0 7.183 4.305c.906.43 2.594.26 3.42-.34 4.861-3.534 9.687-7.126 14.298-10.989 2.628-2.198 2.64-4.77.068-7.035-3.942-3.478-3.376-7.828-2.572-12.043.737-3.908 7.206-4.792 10.638-1.37a62.31 62.31 0 0 1 7.081 8.734c1.575 2.277 3.07 2.424 5.71 1.813a224.314 224.314 0 0 1 21.05-3.773c4.281-.566 5.154-1.563 3.228-5.528a8.95 8.95 0 0 1 1.654-10.457c1.563-1.609 6.48-1.45 8.406.158 4.112 3.433 6.74 7.67 6.786 13.12.034 4.69 3.184 6.672 6.696 8.553 5.335 2.855 8.87 7.114 9.912 13.21.793 4.69.397 8.995-2.31 13.243-3.037 4.758-8.86 5.29-11.783.499-3.025-4.963-4.078-10.05-.6-15.363 1.11-1.688.815-3.444-.975-4.701-4.814-3.365-10.264-4.509-16.03-4.452-2.266.022-3.206 1.404-3.308 3.432-.125 2.447 0 4.906-.159 7.353-.238 3.784-2.04 6.65-5.608 8.1-3.126 1.269-5.743.34-7.613-2.492a12.915 12.915 0 0 1-2.164-9.403c.59-3.682-.441-4.577-3.93-3.263q-7.353 2.787-14.513 6.027c-4.022 1.824-4.453 3.965-2.595 7.987 1.949 4.214 2.244 8.508-.759 12.518-3.138 4.203-8.655 3.943-11.442-.555a50.98 50.98 0 0 1-2.084-3.67c-1.179-2.345-2.266-2.73-4.328-.76-3.33 3.184-6.412 6.628-9.528 10.027a69.107 69.107 0 0 0-4.645 5.653c-3.591 4.905-7.194 9.81-10.615 14.84-3.263 4.804-6.152 9.868-9.482 14.615-2.73 3.886-2.56 6.854.52 10.57 2.969 3.58 4.714 7.704 2.788 12.485-1.7 4.237-5.642 5.313-9.403 2.594-4.045-2.923-4.68-2.82-6.582 1.892a54.38 54.38 0 0 0-2.414 8.1c-.566 2.447.578 3.569 2.991 4.056 2.923.6 6.13.997 8.542 2.538 1.598 1.02 2.515 3.806 2.821 5.948.317 2.243-2.64 5.018-4.95 5.494-2.584.533-5.268.77-7.704 1.677-1.224.453-2.164 2.005-2.9 3.263-.352.6-.012 1.654.102 2.48q.917 6.685 7.295 4.759a7.024 7.024 0 0 1 8.112 3.013c1.597 2.651 1.178 5.325-1.586 7.795a47.582 47.582 0 0 1-6.344 4.656c-2.334 1.484-4.34 3.217-4.611 6.06-.295 3.026-2.232 2.97-4.419 2.958-2.47-.012-4.26-.68-4.452-3.535L5.96 480.998c-.045-.566 0-1.133 0-1.7l-.77-.09Zm85.795 36.547c-2.074 0-4.158.08-6.22-.023-2.22-.113-2.674-1.03-1.575-2.911q.068-.125.159-.238c3.852-4.679 7.658-9.403 11.567-14.037 4.905-5.8 9.98-11.453 14.75-17.356.782-.974.385-2.9.533-4.384-1.247.25-2.935.068-3.682.827-4.498 4.554-8.792 9.301-13.12 14.014q-9.856 10.683-19.621 21.423a7.704 7.704 0 0 1-6.243 2.674c-3.206-.068-6.412.068-9.618-.046-.816-.022-2.107-.453-2.3-1.008-.294-.827-.124-2.152.397-2.877 5.88-8.316 12.371-16.03 20.89-21.877 5.02-3.444 9.54-7.624 14.524-11.136 7.602-5.359 15.408-10.434 23.157-15.6 2.402-1.597 5.517-1.167 7.85.77 2.38 1.972 1.485 4.045.59 6.356-2.764 7.08-5.177 14.297-8.089 21.31-1.314 3.16-3.455 5.993-5.257 8.95q-3.421 5.607-6.91 11.181c-1.473 2.357-3.388 4.033-6.39 3.943-1.79-.046-3.58 0-5.37 0v.022ZM6.504 313.114c-.294-1.915-.578-2.946-.589-3.988-.045-5.835.125-11.68-.08-17.515-.147-4.078 1.417-7.579 3.184-10.966 2.832-5.45 5.97-10.751 9.097-16.053 1.564-2.651 3.41-5.144 5.076-7.727.396-.612.86-1.36.838-2.028-.034-.94-.498-1.869-.782-2.798-.838.295-1.982.329-2.447.918a327.408 327.408 0 0 0-8.836 11.635c-1.677 2.31-3.161 4.758-5.212 6.99-.838-4.294-1.937-8.6.657-12.44 4.963-7.33 10.514-14.195 17.22-20.03 1.496-1.314 2.9-3.364 5.325-2.231 2.662 1.235 3.716 3.5 3.67 6.446-.135 8.882-2.537 17.254-5.641 25.479-1.19 3.16-2.085 6.446-3.421 9.55a748.847 748.847 0 0 1-8.452 18.704 74.771 74.771 0 0 1-3.806 7.217c-1.654 2.764-3.512 5.404-5.8 8.87Zm157.19 194.27c-4.09-.703-5.766.498-6.786 3.058-1.858 4.645-6.038 6.673-10.774 5.144-.612-.193-1.303-1.519-1.223-2.255.453-4.532-.08-5.812-3.864-8.044-3.67-2.163-4.645-6.083-1.903-9.255.997-1.145 3.16-2.108 4.577-1.87 2.3.386 4.52 1.654 6.582 2.867 2.323 1.37 3.365.759 4.917-1.416 3.013-4.204 3.15-7.863.147-12.202-1.824-2.64-2.028-5.948-.385-9.165 1.439-2.798 3.523-4.316 6.707-4.237 3.115.08 6.503 1.994 7.092 4.634.6 2.673.69 5.505.69 8.27 0 2.05-.645 4.09-.747 6.151-.102 2.13.725 3.637 3.24 3.67a5.891 5.891 0 0 1 5.823 4.147c.997 2.855-.577 5.325-2.9 6.413-3.931 1.858-8.19 3.002-11.204 4.067Z"></path><path fill="#bdbdbd" d="M311.26 91.24c-.43 6.65-6.503 15.09-12.598 17.118-10.309 3.421-20.89-5.45-18.794-16.03a33.987 33.987 0 0 1 4.191-11.217c1.258-2.039 4.215-3.568 6.696-4.203a16.087 16.087 0 0 1 11.329 1.371c3.172 1.586 5.959 3.444 7.296 6.832.781 1.982 1.257 4.078 1.869 6.129Zm204.5-41.487c0 2.356.068 4.713-.045 7.069-.034.668-.43 1.767-.861 1.87-.669.158-1.575-.227-2.243-.612-10.265-5.892-16.654-15.408-22.58-25.117-3.885-6.378-7.182-13.232-8.167-20.868a9.063 9.063 0 0 0-.714-2.424c-1.507-3.648-1.133-4.203 2.9-4.215h.567q6.672 0 8.927 6.367c3.512 9.856 8.463 18.66 17.673 24.403 3.421 2.13 5.064 5.166 4.577 9.29-.17 1.393-.023 2.82-.023 4.237zM73.51 234.155c-6.276.147-11.33-6.118-11.59-14.24-.204-6.379 4.419-14.411 13.47-14.241 7.24.136 13.675 5.676 13.8 12.473.17 9.426-6.05 15.77-15.691 16.008ZM515.77 17.692c0 2.911.068 5.823-.022 8.734-.08 2.674-1.258 3.331-3.637 2.074a6.797 6.797 0 0 1-2.424-1.87c-3.648-5.528-7.42-11.012-10.684-16.767-1.676-2.957-.35-4.43 3.161-4.418 3.195 0 6.39-.023 9.585.023 3.194.045 3.953.804 4.021 4.044.057 2.72.012 5.45 0 8.168Z"></path><path d="M477.11 543.27q0-1.98-1.97-1.98-.78 0-1.7.35-.92.34-1.56.84-.21.12-.45.12-.25 0-.43-.12-.17-.12-.17-.37t.36-.52q1.27-1.35 3.24-1.75.59-.12 1.25-.12 1.56 0 2.47.87.92.88.92 2.39 0 2.13-2.27 4.76-1.72 2-4.72 4.45h2.63q1.46 0 1.87-.01l.2-.01q.8 0 1.3-1.29.15-.38.15-.53v-.01q.57 0 .91.39.34.38.34 1.06t-.35 1.22q-.34.53-.9.53h-6.59q-.53 0-.88-.28t-.35-.8q0-.25.31-.58.3-.33.96-.92 3.14-2.79 4.65-5.4.78-1.35.78-2.29"></path><rect width="9.07" height="13.82" x="-4.54" y="-6.91" fill="none" rx="0" ry="0" transform="translate(475.44 547.13)"></rect><path d="M487.25 552.52q1.48 0 2.45-.75.96-.76 1.45-1.97.49-1.22.49-2.61 0-2.33-1.24-4.07-1.23-1.75-3.36-1.75t-3.26 1.57q-1.12 1.56-1.12 3.81 0 2.26 1.23 4.02 1.23 1.75 3.36 1.75m-.16 1.27q-3.12 0-4.87-2.05-1.59-1.88-1.59-4.61 0-2.73 1.67-4.76 1.12-1.37 2.93-1.93.91-.27 1.99-.27 2.14 0 3.59.91 1.45.9 2.18 2.42.74 1.52.74 3.26 0 2.79-1.68 4.81-1.84 2.22-4.96 2.22"></path><rect width="13.1" height="13.62" x="-6.55" y="-6.81" fill="none" rx="0" ry="0" transform="translate(487.68 547.48)"></rect><path d="M501.2 543.27q0-1.98-1.96-1.98-.78 0-1.71.35-.92.34-1.56.84-.2.12-.45.12t-.42-.12q-.18-.12-.18-.37t.36-.52q1.27-1.35 3.24-1.75.6-.12 1.25-.12 1.56 0 2.48.87.91.88.91 2.39 0 2.13-2.26 4.76-1.73 2-4.73 4.45h2.63q1.47 0 1.87-.01l.21-.01q.8 0 1.3-1.29.15-.38.15-.53v-.01q.56 0 .9.39.34.38.34 1.06t-.34 1.22q-.35.53-.9.53h-6.6q-.53 0-.88-.28t-.35-.8q0-.25.31-.58.31-.33.97-.92 3.13-2.79 4.64-5.4.78-1.35.78-2.29"></path><rect width="9.07" height="13.82" x="-4.54" y="-6.91" fill="none" rx="0" ry="0" transform="translate(499.53 547.13)"></rect><path d="m513.49 551.94-.33.46q-.33.45-1.41.9-1.08.46-2.32.46-1.24 0-2.58-.44t-1.89-.81q-.54-.38-.68-.57-.15-.19-.15-.39t.18-.41q.18-.21.36-.21t.78.29q.6.3 1.62.56 1.03.26 2.03.26 1.45 0 2.18-.7.73-.7.73-1.79 0-1.08-1-2.01-1-.93-2.82-.93-1.36 0-2.92.24l1.49-6.17 2.22.08q3.4 0 3.76-1.24l.18-.01q.45 0 .73.35.28.34.28.84 0 .79-.64 1.15-.64.37-1.59.37h-4.01l-.68 3.32q1.15-.1 2.09-.1 2.31 0 3.68 1.13 1.36 1.13 1.36 3.26 0 1.21-.65 2.11"></path><rect width="10.01" height="14.25" x="-5" y="-7.13" fill="none" rx="0" ry="0" transform="translate(509.63 547.13)"></rect><path fill="#c9c9c9" d="M220.82 257.06q0 10.93 4 20.18 3.99 9.26 11.01 15.62 14.84 13.45 38.08 13.45t40.93-17.69q1.96-1.96 3.47-1.96 1.51 0 2.85 1.14 1.35 1.14 1.35 2.77 0 1.63-.9 3.67h.08q-6.11 10.77-20.43 17.9-14.31 7.14-29.31 7.14-15 0-27.32-3.84-12.31-3.83-21.81-10.92-9.5-7.1-15.13-18.15-5.62-11.04-5.62-24.87 0-13.82 5.3-25.27 5.3-11.46 14.59-18.96 19.09-15.5 48.69-15.5 15.73 0 29.76 4.9 7.17 2.52 11.7 7.21 4.53 4.69 4.53 10.73 0 6.03-3.76 8.97-3.75 2.93-8.8 2.93-5.06 0-7.42-.81-.9-12.73-7.34-18.92-6.44-6.2-19.41-6.2-22.1 0-35.59 12.84-13.5 12.85-13.5 33.64"></path><rect width="120.44" height="117.51" x="-60.22" y="-58.76" fill="none" rx="0" ry="0" transform="translate(262.79 261.02)"></rect></svg></svg>