<svg width="183" height="24" viewBox="0 0 183 24" fill="none" xmlns="http://www.w3.org/2000/svg">
<g opacity="0.3" clip-path="url(#clip0_114_10730)">
<path d="M156.203 9.5232V23.9856H160.791V14.344H177.571V23.9856H182.16V9.5232H156.203ZM160.267 4.83448H177.965C180.455 4.37221 182.225 2.1269 182.75 0.0136719H155.482C156.006 2.1269 157.841 4.30617 160.267 4.83448ZM142.241 23.9856C144.535 22.995 145.781 21.278 146.305 19.2969H125.657V0.0797103H121.003V23.9856H142.241ZM86.5908 4.76844H102.978C105.469 4.04202 107.501 2.1269 108.025 0.0797103H82.068V14.2119H103.306V19.1648H86.6564C84.0345 19.8912 81.8058 21.6743 80.6915 23.9856H107.894V9.5232H86.6564L86.5908 4.76844ZM46.2133 4.83448H63.9112C66.4021 4.37221 68.2374 2.1269 68.6962 0.0136719H41.3627C41.8871 2.1269 43.7225 4.30617 46.2133 4.83448ZM46.2133 14.278H63.9112C66.4021 13.8157 68.2374 11.5704 68.6962 9.45717H41.3627C41.8871 11.5704 43.7225 13.7497 46.2133 14.278ZM46.2133 23.9856H63.9112C66.4021 23.5233 68.2374 21.278 68.6962 19.1648H41.3627C41.8871 21.278 43.7225 23.5233 46.2133 23.9856Z" fill="#202430"/>
<path d="M0.133057 0.0797103C0.65744 2.19294 2.49278 4.30617 4.91806 4.83448H12.3905L12.7838 4.96655V23.9196H17.4377V4.96655L17.831 4.83448H25.3035C27.7943 4.17409 29.5641 2.19294 30.0885 0.0797103V0.0136719L0.133057 0.0797103Z" fill="#202430"/>
</g>
<defs>
<clipPath id="clip0_114_10730">
<rect width="182.682" height="24" fill="white" transform="translate(0.133057)"/>
</clipPath>
</defs>
</svg>
